<svg xmlns="http://www.w3.org/2000/svg" width="800" height="293" viewBox="0 0 800 293">
  <style>
    text { font-family: -apple-system, BlinkMacSystemFont, "Segoe UI", Helvetica, Arial, sans-serif; }
    .title { font-size: 16px; font-weight: 600; fill: #24292f; }
    .label { font-size: 12px; fill: #24292f; }
    .value { font-size: 11px; fill: #57606a; }
    .axis-label { font-size: 11px; fill: #57606a; }
    .legend-text { font-size: 12px; fill: #24292f; }
    .grid { stroke: #d0d7de; stroke-width: 0.5; }
  </style>
  <rect width="100%" height="100%" fill="white"/>
  <text x="400.0" y="25" text-anchor="middle" class="title">Binary Decode Throughput — ApiResponse</text>
  <rect x="70" y="35" width="14" height="14" rx="2" fill="#4C78A8"/>
  <text x="88" y="46" class="legend-text">buffa</text>
  <rect x="139.5" y="35" width="14" height="14" rx="2" fill="#72B7B2"/>
  <text x="157.5" y="46" class="legend-text">buffa (view)</text>
  <rect x="261.5" y="35" width="14" height="14" rx="2" fill="#A0CBE8"/>
  <text x="279.5" y="46" class="legend-text">buffa (lazy)</text>
  <rect x="383.5" y="35" width="14" height="14" rx="2" fill="#F58518"/>
  <text x="401.5" y="46" class="legend-text">prost</text>
  <rect x="453" y="35" width="14" height="14" rx="2" fill="#EEAE62"/>
  <text x="471" y="46" class="legend-text">prost (bytes)</text>
  <rect x="582.5" y="35" width="14" height="14" rx="2" fill="#E45756"/>
  <text x="600.5" y="46" class="legend-text">protobuf-v4</text>
  <rect x="697" y="35" width="14" height="14" rx="2" fill="#54A24B"/>
  <text x="715" y="46" class="legend-text">Go</text>
  <line x1="140.0" y1="80" x2="140.0" y2="258" class="grid"/>
  <text x="140.0" y="273" text-anchor="middle" class="axis-label">0</text>
  <line x1="256.0" y1="80" x2="256.0" y2="258" class="grid"/>
  <text x="256.0" y="273" text-anchor="middle" class="axis-label">400</text>
  <line x1="372.0" y1="80" x2="372.0" y2="258" class="grid"/>
  <text x="372.0" y="273" text-anchor="middle" class="axis-label">800</text>
  <line x1="488.0" y1="80" x2="488.0" y2="258" class="grid"/>
  <text x="488.0" y="273" text-anchor="middle" class="axis-label">1,200</text>
  <line x1="604.0" y1="80" x2="604.0" y2="258" class="grid"/>
  <text x="604.0" y="273" text-anchor="middle" class="axis-label">1,600</text>
  <line x1="720.0" y1="80" x2="720.0" y2="258" class="grid"/>
  <text x="720.0" y="273" text-anchor="middle" class="axis-label">2,000</text>
  <text x="430.0" y="288" text-anchor="middle" class="axis-label">MiB/s</text>
  <text x="130" y="173.0" text-anchor="end" class="label">ApiResponse</text>
  <rect x="140" y="80.0" width="234.8" height="22" rx="2" fill="#4C78A8"/>
  <text x="378.8" y="95.0" class="value">809</text>
  <rect x="140" y="106.0" width="417.7" height="22" rx="2" fill="#72B7B2"/>
  <text x="561.7" y="121.0" class="value">1,440</text>
  <rect x="140" y="132.0" width="394.6" height="22" rx="2" fill="#A0CBE8"/>
  <text x="538.6" y="147.0" class="value">1,360</text>
  <rect x="140" y="158.0" width="227.4" height="22" rx="2" fill="#F58518"/>
  <text x="371.4" y="173.0" class="value">784</text>
  <rect x="140" y="184.0" width="194.6" height="22" rx="2" fill="#EEAE62"/>
  <text x="338.6" y="199.0" class="value">671</text>
  <rect x="140" y="210.0" width="197.6" height="22" rx="2" fill="#E45756"/>
  <text x="341.6" y="225.0" class="value">681</text>
  <rect x="140" y="236.0" width="77.7" height="22" rx="2" fill="#54A24B"/>
  <text x="221.7" y="251.0" class="value">268</text>
</svg>
