<svg xmlns="http://www.w3.org/2000/svg" width="800" height="293" viewBox="0 0 800 293">
  <style>
    text { font-family: -apple-system, BlinkMacSystemFont, "Segoe UI", Helvetica, Arial, sans-serif; }
    .title { font-size: 16px; font-weight: 600; fill: #24292f; }
    .label { font-size: 12px; fill: #24292f; }
    .value { font-size: 11px; fill: #57606a; }
    .axis-label { font-size: 11px; fill: #57606a; }
    .legend-text { font-size: 12px; fill: #24292f; }
    .grid { stroke: #d0d7de; stroke-width: 0.5; }
  </style>
  <rect width="100%" height="100%" fill="white"/>
  <text x="400.0" y="25" text-anchor="middle" class="title">Binary Decode Throughput — MediaFrame</text>
  <rect x="70" y="35" width="14" height="14" rx="2" fill="#4C78A8"/>
  <text x="88" y="46" class="legend-text">buffa</text>
  <rect x="139.5" y="35" width="14" height="14" rx="2" fill="#72B7B2"/>
  <text x="157.5" y="46" class="legend-text">buffa (view)</text>
  <rect x="261.5" y="35" width="14" height="14" rx="2" fill="#A0CBE8"/>
  <text x="279.5" y="46" class="legend-text">buffa (lazy)</text>
  <rect x="383.5" y="35" width="14" height="14" rx="2" fill="#F58518"/>
  <text x="401.5" y="46" class="legend-text">prost</text>
  <rect x="453" y="35" width="14" height="14" rx="2" fill="#EEAE62"/>
  <text x="471" y="46" class="legend-text">prost (bytes)</text>
  <rect x="582.5" y="35" width="14" height="14" rx="2" fill="#E45756"/>
  <text x="600.5" y="46" class="legend-text">protobuf-v4</text>
  <rect x="697" y="35" width="14" height="14" rx="2" fill="#54A24B"/>
  <text x="715" y="46" class="legend-text">Go</text>
  <line x1="140.0" y1="80" x2="140.0" y2="258" class="grid"/>
  <text x="140.0" y="273" text-anchor="middle" class="axis-label">0.0</text>
  <line x1="256.0" y1="80" x2="256.0" y2="258" class="grid"/>
  <text x="256.0" y="273" text-anchor="middle" class="axis-label">14.0</text>
  <line x1="372.0" y1="80" x2="372.0" y2="258" class="grid"/>
  <text x="372.0" y="273" text-anchor="middle" class="axis-label">28.0</text>
  <line x1="488.0" y1="80" x2="488.0" y2="258" class="grid"/>
  <text x="488.0" y="273" text-anchor="middle" class="axis-label">42.0</text>
  <line x1="604.0" y1="80" x2="604.0" y2="258" class="grid"/>
  <text x="604.0" y="273" text-anchor="middle" class="axis-label">56.0</text>
  <line x1="720.0" y1="80" x2="720.0" y2="258" class="grid"/>
  <text x="720.0" y="273" text-anchor="middle" class="axis-label">70.0</text>
  <text x="430.0" y="288" text-anchor="middle" class="axis-label">GiB/s</text>
  <text x="130" y="173.0" text-anchor="end" class="label">MediaFrame</text>
  <rect x="140" y="80.0" width="135.9" height="22" rx="2" fill="#4C78A8"/>
  <text x="279.9" y="95.0" class="value">16.40</text>
  <rect x="140" y="106.0" width="570.5" height="22" rx="2" fill="#72B7B2"/>
  <text x="714.5" y="121.0" class="value">68.85</text>
  <rect x="140" y="132.0" width="541.0" height="22" rx="2" fill="#A0CBE8"/>
  <text x="685.0" y="147.0" class="value">65.29</text>
  <rect x="140" y="158.0" width="72.8" height="22" rx="2" fill="#F58518"/>
  <text x="216.8" y="173.0" class="value">8.79</text>
  <rect x="140" y="184.0" width="174.1" height="22" rx="2" fill="#EEAE62"/>
  <text x="318.1" y="199.0" class="value">21.01</text>
  <rect x="140" y="210.0" width="141.4" height="22" rx="2" fill="#E45756"/>
  <text x="285.4" y="225.0" class="value">17.07</text>
  <rect x="140" y="236.0" width="10.2" height="22" rx="2" fill="#54A24B"/>
  <text x="154.2" y="251.0" class="value">1.23</text>
</svg>
