<svg xmlns="http://www.w3.org/2000/svg" width="800" height="267" viewBox="0 0 800 267">
  <style>
    text { font-family: -apple-system, BlinkMacSystemFont, "Segoe UI", Helvetica, Arial, sans-serif; }
    .title { font-size: 16px; font-weight: 600; fill: #24292f; }
    .label { font-size: 12px; fill: #24292f; }
    .value { font-size: 11px; fill: #57606a; }
    .axis-label { font-size: 11px; fill: #57606a; }
    .legend-text { font-size: 12px; fill: #24292f; }
    .grid { stroke: #d0d7de; stroke-width: 0.5; }
  </style>
  <rect width="100%" height="100%" fill="white"/>
  <text x="400.0" y="25" text-anchor="middle" class="title">Binary Encode Throughput — AnalyticsEvent</text>
  <rect x="134.75" y="35" width="14" height="14" rx="2" fill="#4C78A8"/>
  <text x="152.75" y="46" class="legend-text">buffa</text>
  <rect x="204.25" y="35" width="14" height="14" rx="2" fill="#72B7B2"/>
  <text x="222.25" y="46" class="legend-text">buffa (view)</text>
  <rect x="326.25" y="35" width="14" height="14" rx="2" fill="#A0CBE8"/>
  <text x="344.25" y="46" class="legend-text">buffa (lazy)</text>
  <rect x="448.25" y="35" width="14" height="14" rx="2" fill="#F58518"/>
  <text x="466.25" y="46" class="legend-text">prost</text>
  <rect x="517.75" y="35" width="14" height="14" rx="2" fill="#E45756"/>
  <text x="535.75" y="46" class="legend-text">protobuf-v4</text>
  <rect x="632.25" y="35" width="14" height="14" rx="2" fill="#54A24B"/>
  <text x="650.25" y="46" class="legend-text">Go</text>
  <line x1="140.0" y1="80" x2="140.0" y2="232" class="grid"/>
  <text x="140.0" y="247" text-anchor="middle" class="axis-label">0</text>
  <line x1="242.0" y1="80" x2="242.0" y2="232" class="grid"/>
  <text x="242.0" y="247" text-anchor="middle" class="axis-label">140</text>
  <line x1="344.0" y1="80" x2="344.0" y2="232" class="grid"/>
  <text x="344.0" y="247" text-anchor="middle" class="axis-label">280</text>
  <line x1="446.0" y1="80" x2="446.0" y2="232" class="grid"/>
  <text x="446.0" y="247" text-anchor="middle" class="axis-label">420</text>
  <line x1="548.0" y1="80" x2="548.0" y2="232" class="grid"/>
  <text x="548.0" y="247" text-anchor="middle" class="axis-label">560</text>
  <line x1="650.0" y1="80" x2="650.0" y2="232" class="grid"/>
  <text x="650.0" y="247" text-anchor="middle" class="axis-label">700</text>
  <text x="430.0" y="262" text-anchor="middle" class="axis-label">MiB/s</text>
  <line x1="664.5" y1="237" x2="670.5" y2="227" stroke="#57606a" stroke-width="1"/>
  <line x1="670.5" y1="237" x2="676.5" y2="227" stroke="#57606a" stroke-width="1"/>
  <text x="130" y="160.0" text-anchor="end" class="label">AnalyticsEvent</text>
  <rect x="140" y="80.0" width="432.9" height="22" rx="2" fill="#4C78A8"/>
  <text x="576.9" y="95.0" class="value">594</text>
  <rect x="140" y="106.0" width="441.4" height="22" rx="2" fill="#72B7B2"/>
  <text x="585.4" y="121.0" class="value">605</text>
  <rect x="140" y="132.0" width="580.0" height="22" rx="2" fill="#A0CBE8"/>
  <polygon points="663.5,155.0 669.5,131.0 675.5,131.0 669.5,155.0" fill="white"/>
  <line x1="663.5" y1="155.0" x2="669.5" y2="131.0" stroke="#57606a" stroke-width="1"/>
  <line x1="669.5" y1="155.0" x2="675.5" y2="131.0" stroke="#57606a" stroke-width="1"/>
  <text x="724.0" y="147.0" class="value">23,839</text>
  <rect x="140" y="158.0" width="259.3" height="22" rx="2" fill="#F58518"/>
  <text x="403.3" y="173.0" class="value">355</text>
  <rect x="140" y="184.0" width="376.6" height="22" rx="2" fill="#E45756"/>
  <text x="520.6" y="199.0" class="value">516</text>
  <rect x="140" y="210.0" width="116.1" height="22" rx="2" fill="#54A24B"/>
  <text x="260.1" y="225.0" class="value">159</text>
</svg>
