<svg xmlns="http://www.w3.org/2000/svg" width="800" height="163" viewBox="0 0 800 163">
  <style>
    text { font-family: -apple-system, BlinkMacSystemFont, "Segoe UI", Helvetica, Arial, sans-serif; }
    .title { font-size: 16px; font-weight: 600; fill: #24292f; }
    .label { font-size: 12px; fill: #24292f; }
    .value { font-size: 11px; fill: #57606a; }
    .axis-label { font-size: 11px; fill: #57606a; }
    .legend-text { font-size: 12px; fill: #24292f; }
    .grid { stroke: #d0d7de; stroke-width: 0.5; }
  </style>
  <rect width="100%" height="100%" fill="white"/>
  <text x="400.0" y="25" text-anchor="middle" class="title">Reflection Encode Throughput (generated vs DynamicMessage) — AnalyticsEvent</text>
  <rect x="315" y="35" width="14" height="14" rx="2" fill="#4C78A8"/>
  <text x="333" y="46" class="legend-text">generated</text>
  <rect x="414.5" y="35" width="14" height="14" rx="2" fill="#B279A2"/>
  <text x="432.5" y="46" class="legend-text">reflect</text>
  <line x1="140.0" y1="80" x2="140.0" y2="128" class="grid"/>
  <text x="140.0" y="143" text-anchor="middle" class="axis-label">0</text>
  <line x1="256.0" y1="80" x2="256.0" y2="128" class="grid"/>
  <text x="256.0" y="143" text-anchor="middle" class="axis-label">120</text>
  <line x1="372.0" y1="80" x2="372.0" y2="128" class="grid"/>
  <text x="372.0" y="143" text-anchor="middle" class="axis-label">240</text>
  <line x1="488.0" y1="80" x2="488.0" y2="128" class="grid"/>
  <text x="488.0" y="143" text-anchor="middle" class="axis-label">360</text>
  <line x1="604.0" y1="80" x2="604.0" y2="128" class="grid"/>
  <text x="604.0" y="143" text-anchor="middle" class="axis-label">480</text>
  <line x1="720.0" y1="80" x2="720.0" y2="128" class="grid"/>
  <text x="720.0" y="143" text-anchor="middle" class="axis-label">600</text>
  <text x="430.0" y="158" text-anchor="middle" class="axis-label">MiB/s</text>
  <text x="130" y="108.0" text-anchor="end" class="label">AnalyticsEvent</text>
  <rect x="140" y="80.0" width="539.3" height="22" rx="2" fill="#4C78A8"/>
  <text x="683.3" y="95.0" class="value">557</text>
  <rect x="140" y="106.0" width="105.4" height="22" rx="2" fill="#B279A2"/>
  <text x="249.4" y="121.0" class="value">109</text>
</svg>
