<svg xmlns="http://www.w3.org/2000/svg" width="776" height="420" viewBox="0 0 776 420">
  <style>
    text { font-family: -apple-system, BlinkMacSystemFont, "Segoe UI", Helvetica, Arial, sans-serif; }
    .title { font-size: 15px; font-weight: 600; fill: #24292f; }
    .axis-label { font-size: 11px; fill: #57606a; }
    .legend-text { font-size: 12px; fill: #24292f; }
    .grid { stroke: #d0d7de; stroke-width: 0.5; }
    .baseline { stroke: #8c959f; stroke-width: 1; stroke-dasharray: 4 3; }
    .noise-band { fill: #b1bac4; opacity: 0.18; }
    .band-label { font-size: 10px; fill: #8c959f; }
  </style>
  <rect width="100%" height="100%" fill="white"/>
  <rect x="56" y="204.0" width="560" height="106.7" class="noise-band"/>
  <text x="612" y="260.3" text-anchor="end" class="band-label">±5% noise</text>
  <text x="336.0" y="26" text-anchor="middle" class="title">Merge into existing — throughput vs each message’s first release (%)</text>
  <line x1="56" y1="364.0" x2="616" y2="364.0" class="grid"/>
  <text x="48" y="368.0" text-anchor="end" class="axis-label">90%</text>
  <line x1="56" y1="310.7" x2="616" y2="310.7" class="grid"/>
  <text x="48" y="314.7" text-anchor="end" class="axis-label">95%</text>
  <line x1="56" y1="257.3" x2="616" y2="257.3" class="grid"/>
  <text x="48" y="261.3" text-anchor="end" class="axis-label">100%</text>
  <line x1="56" y1="204.0" x2="616" y2="204.0" class="grid"/>
  <text x="48" y="208.0" text-anchor="end" class="axis-label">105%</text>
  <line x1="56" y1="150.7" x2="616" y2="150.7" class="grid"/>
  <text x="48" y="154.7" text-anchor="end" class="axis-label">110%</text>
  <line x1="56" y1="97.3" x2="616" y2="97.3" class="grid"/>
  <text x="48" y="101.3" text-anchor="end" class="axis-label">115%</text>
  <line x1="56" y1="44.0" x2="616" y2="44.0" class="grid"/>
  <text x="48" y="48.0" text-anchor="end" class="axis-label">120%</text>
  <line x1="56" y1="257.3" x2="616" y2="257.3" class="baseline"/>
  <text x="56.0" y="382" text-anchor="middle" class="axis-label">v0.1.0</text>
  <text x="136.0" y="382" text-anchor="middle" class="axis-label">v0.2.0</text>
  <text x="216.0" y="382" text-anchor="middle" class="axis-label">v0.3.0</text>
  <text x="296.0" y="382" text-anchor="middle" class="axis-label">v0.4.0</text>
  <text x="376.0" y="382" text-anchor="middle" class="axis-label">v0.5.0</text>
  <text x="456.0" y="382" text-anchor="middle" class="axis-label">v0.6.0</text>
  <text x="536.0" y="382" text-anchor="middle" class="axis-label">v0.7.0</text>
  <text x="616.0" y="382" text-anchor="middle" class="axis-label">v0.7.1</text>
  <path d="M56.0,257.3 L136.0,243.3 L216.0,214.9 L296.0,233.1 L376.0,211.2 L456.0,287.9 L536.0,193.1 L616.0,205.2" fill="none" stroke="#4C78A8" stroke-width="2"/>
  <circle cx="56.0" cy="257.3" r="3" fill="#4C78A8"/>
  <circle cx="136.0" cy="243.3" r="3" fill="#4C78A8"/>
  <circle cx="216.0" cy="214.9" r="3" fill="#4C78A8"/>
  <circle cx="296.0" cy="233.1" r="3" fill="#4C78A8"/>
  <circle cx="376.0" cy="211.2" r="3" fill="#4C78A8"/>
  <circle cx="456.0" cy="287.9" r="3" fill="#4C78A8"/>
  <circle cx="536.0" cy="193.1" r="3" fill="#4C78A8"/>
  <circle cx="616.0" cy="205.2" r="3" fill="#4C78A8"/>
  <path d="M56.0,257.3 L136.0,274.6 L216.0,220.5 L296.0,237.2 L376.0,280.3 L456.0,223.4 L536.0,283.5 L616.0,241.9" fill="none" stroke="#F58518" stroke-width="2"/>
  <circle cx="56.0" cy="257.3" r="3" fill="#F58518"/>
  <circle cx="136.0" cy="274.6" r="3" fill="#F58518"/>
  <circle cx="216.0" cy="220.5" r="3" fill="#F58518"/>
  <circle cx="296.0" cy="237.2" r="3" fill="#F58518"/>
  <circle cx="376.0" cy="280.3" r="3" fill="#F58518"/>
  <circle cx="456.0" cy="223.4" r="3" fill="#F58518"/>
  <circle cx="536.0" cy="283.5" r="3" fill="#F58518"/>
  <circle cx="616.0" cy="241.9" r="3" fill="#F58518"/>
  <path d="M56.0,257.3 L136.0,258.2 L216.0,258.8 L296.0,158.9 L376.0,230.6 L456.0,172.5 L536.0,151.4 L616.0,150.6" fill="none" stroke="#54A24B" stroke-width="2"/>
  <circle cx="56.0" cy="257.3" r="3" fill="#54A24B"/>
  <circle cx="136.0" cy="258.2" r="3" fill="#54A24B"/>
  <circle cx="216.0" cy="258.8" r="3" fill="#54A24B"/>
  <circle cx="296.0" cy="158.9" r="3" fill="#54A24B"/>
  <circle cx="376.0" cy="230.6" r="3" fill="#54A24B"/>
  <circle cx="456.0" cy="172.5" r="3" fill="#54A24B"/>
  <circle cx="536.0" cy="151.4" r="3" fill="#54A24B"/>
  <circle cx="616.0" cy="150.6" r="3" fill="#54A24B"/>
  <path d="M56.0,257.3 L136.0,290.1 L216.0,202.5 L296.0,238.4 L376.0,275.2 L456.0,271.6 L536.0,318.1 L616.0,350.0" fill="none" stroke="#E45756" stroke-width="2"/>
  <circle cx="56.0" cy="257.3" r="3" fill="#E45756"/>
  <circle cx="136.0" cy="290.1" r="3" fill="#E45756"/>
  <circle cx="216.0" cy="202.5" r="3" fill="#E45756"/>
  <circle cx="296.0" cy="238.4" r="3" fill="#E45756"/>
  <circle cx="376.0" cy="275.2" r="3" fill="#E45756"/>
  <circle cx="456.0" cy="271.6" r="3" fill="#E45756"/>
  <circle cx="536.0" cy="318.1" r="3" fill="#E45756"/>
  <circle cx="616.0" cy="350.0" r="3" fill="#E45756"/>
  <path d="M56.0,257.3 L136.0,263.7 L216.0,270.1 L296.0,269.6 L376.0,280.0 L456.0,262.3 L536.0,284.1 L616.0,293.2" fill="none" stroke="#72B7B2" stroke-width="2"/>
  <circle cx="56.0" cy="257.3" r="3" fill="#72B7B2"/>
  <circle cx="136.0" cy="263.7" r="3" fill="#72B7B2"/>
  <circle cx="216.0" cy="270.1" r="3" fill="#72B7B2"/>
  <circle cx="296.0" cy="269.6" r="3" fill="#72B7B2"/>
  <circle cx="376.0" cy="280.0" r="3" fill="#72B7B2"/>
  <circle cx="456.0" cy="262.3" r="3" fill="#72B7B2"/>
  <circle cx="536.0" cy="284.1" r="3" fill="#72B7B2"/>
  <circle cx="616.0" cy="293.2" r="3" fill="#72B7B2"/>
  <path d="M56.0,257.3 L136.0,235.5 L216.0,251.9 L296.0,262.0 L376.0,273.6 L456.0,256.4 L536.0,274.1 L616.0,285.1" fill="none" stroke="#B279A2" stroke-width="2"/>
  <circle cx="56.0" cy="257.3" r="3" fill="#B279A2"/>
  <circle cx="136.0" cy="235.5" r="3" fill="#B279A2"/>
  <circle cx="216.0" cy="251.9" r="3" fill="#B279A2"/>
  <circle cx="296.0" cy="262.0" r="3" fill="#B279A2"/>
  <circle cx="376.0" cy="273.6" r="3" fill="#B279A2"/>
  <circle cx="456.0" cy="256.4" r="3" fill="#B279A2"/>
  <circle cx="536.0" cy="274.1" r="3" fill="#B279A2"/>
  <circle cx="616.0" cy="285.1" r="3" fill="#B279A2"/>
  <rect x="632" y="50" width="12" height="12" rx="2" fill="#4C78A8"/>
  <text x="650" y="61" class="legend-text">ApiResponse</text>
  <rect x="632" y="72" width="12" height="12" rx="2" fill="#F58518"/>
  <text x="650" y="83" class="legend-text">LogRecord</text>
  <rect x="632" y="94" width="12" height="12" rx="2" fill="#54A24B"/>
  <text x="650" y="105" class="legend-text">AnalyticsEvent</text>
  <rect x="632" y="116" width="12" height="12" rx="2" fill="#E45756"/>
  <text x="650" y="127" class="legend-text">GoogleMessage1</text>
  <rect x="632" y="138" width="12" height="12" rx="2" fill="#72B7B2"/>
  <text x="650" y="149" class="legend-text">MediaFrame</text>
  <rect x="632" y="160" width="12" height="12" rx="2" fill="#B279A2"/>
  <text x="650" y="171" class="legend-text">PackedTile</text>
</svg>
